<svg version="1.1" id="Layer_1" xmlns="http://www.w3.org/2000/svg" xmlns:xlink="http://www.w3.org/1999/xlink" x="0px" y="0px"
	 width="100%" viewBox="0 0 1024 352" enable-background="new 0 0 1024 352" xml:space="preserve">
<path fill="#000000" opacity="1.000000" stroke="none" 
	d="
M830.501831,154.605850 
	C837.680847,135.221222 851.992737,124.300888 871.079468,119.947456 
	C893.150513,114.913353 913.154175,120.115547 929.548889,136.032608 
	C950.116577,156.001144 949.635498,191.843338 929.683472,212.368927 
	C908.631165,234.026382 871.543518,236.437927 846.315613,216.220810 
	C829.110229,202.432755 822.147095,175.173065 830.501831,154.605850 
M901.508545,128.897720 
	C884.072021,120.430069 866.900635,124.827309 857.793762,141.820068 
	C845.790039,164.218201 846.867798,187.520630 859.668274,209.020584 
	C871.798584,229.394928 899.523010,228.944077 912.706421,209.259064 
	C921.172485,196.617737 923.213562,182.293625 921.536316,167.604736 
	C919.826233,152.628479 915.734802,138.431610 901.508545,128.897720 
z"/>
<path fill="#000000" opacity="1.000000" stroke="none" 
	d="
M622.027649,184.155945 
	C623.972656,166.245621 621.726990,149.658707 610.111511,135.725189 
	C596.466919,119.357681 571.108276,121.386147 559.663635,139.383286 
	C555.478577,145.964371 553.060242,153.166016 552.224121,160.887207 
	C551.984009,163.104279 551.799988,165.340195 549.874512,166.701080 
	C542.823425,171.684601 537.357300,178.102997 532.612366,185.223465 
	C532.189087,185.858673 531.388794,186.242661 530.883057,186.647568 
	C528.616638,186.077820 528.851746,184.373856 528.683655,182.966812 
	C524.574341,148.576340 546.159668,121.807739 580.826904,118.794495 
	C596.144165,117.463120 610.500732,120.655716 622.967834,129.638519 
	C640.983398,142.619125 647.812744,160.933090 644.973206,182.548889 
	C642.337585,202.612167 631.190491,217.128769 612.502441,224.816406 
	C588.057434,234.872284 565.248474,231.132385 544.827271,214.246063 
	C539.168335,209.566696 539.263062,208.548798 543.607971,202.867172 
	C545.930054,199.830688 548.271179,196.808228 550.655334,193.820587 
	C550.919312,193.489807 551.522766,193.429962 552.207214,193.145325 
	C554.392944,194.780212 554.396973,197.486542 555.195007,199.706665 
	C561.170532,216.330307 574.154846,224.905807 591.195129,223.607269 
	C602.138977,222.773300 609.102539,216.164291 614.623962,207.664871 
	C619.135925,200.719284 621.345764,192.871323 622.027649,184.155945 
z"/>
<path fill="#000000" opacity="1.000000" stroke="none" 
	d="
M478.976807,124.938271 
	C462.127319,125.690620 451.285645,133.915314 445.868347,149.518524 
	C441.358246,162.508789 440.632568,175.616150 445.017761,188.700668 
	C453.256592,213.283981 476.714142,221.682495 499.798309,216.810455 
	C516.621643,213.259811 527.856995,202.247101 537.261658,188.853348 
	C542.665710,181.157150 548.975586,174.311798 556.207642,168.390656 
	C561.355652,164.175842 567.725586,162.592636 574.257629,161.935577 
	C575.978149,161.762512 577.790222,162.405487 577.842529,164.533264 
	C577.886719,166.328690 576.404724,166.996353 574.780823,167.196548 
	C563.262268,168.616714 555.621521,175.761826 549.112549,184.578522 
	C542.585938,193.419128 536.141357,202.292084 528.107422,209.922897 
	C509.811066,227.301163 488.351837,233.886948 463.800995,228.073395 
	C422.226929,218.228775 409.209167,175.578537 427.841095,144.276306 
	C437.256775,128.457626 452.734802,121.118683 470.618683,119.063797 
	C483.762238,117.553589 496.461121,119.739555 508.632385,125.164330 
	C513.100281,127.155701 515.813721,129.714340 515.252319,134.938034 
	C514.716003,139.929230 516.358765,145.121765 513.692078,151.618195 
	C506.210846,136.348526 497.201630,124.624588 478.976807,124.938271 
z"/>
<path fill="#000000" opacity="1.000000" stroke="none" 
	d="
M199.194519,202.000183 
	C199.182312,209.331696 199.201096,216.163452 199.140884,222.994522 
	C199.123840,224.929733 199.548935,227.257095 196.977676,228.012192 
	C194.375351,228.776382 192.133392,228.132706 190.278854,225.944489 
	C183.604599,218.069305 176.906387,210.212921 170.114914,202.438843 
	C152.474518,182.246155 134.781662,162.099304 117.095482,141.946655 
	C116.678513,141.471542 116.093361,141.144028 115.616142,140.770737 
	C113.669151,141.813065 114.399483,143.459335 114.359344,144.844452 
	C113.611046,170.667618 115.184235,196.464462 115.236565,222.278580 
	C115.241051,224.491562 116.002068,227.135223 112.781212,228.043961 
	C109.112984,229.078903 106.754898,227.234100 106.847061,223.065369 
	C106.986931,216.739075 107.531822,210.418518 107.566437,204.093689 
	C107.691299,181.272980 107.632500,158.451263 107.761223,135.630600 
	C107.778671,132.536102 106.778488,130.227325 104.593452,128.127335 
	C102.839233,126.441414 100.900627,124.810333 99.959381,122.615379 
	C100.253571,122.044571 100.335266,121.576225 100.563957,121.487724 
	C106.033325,119.371246 111.764511,121.580643 117.250565,120.578110 
	C123.742683,119.391716 127.405037,123.065727 131.113144,127.365982 
	C149.490189,148.677628 167.948135,169.919556 186.394226,191.171585 
	C187.976578,192.994644 189.680878,194.711868 191.971954,197.168060 
	C193.266678,181.620377 192.411743,167.208557 192.070572,152.802704 
	C191.857651,143.812714 191.614563,134.821686 191.211365,125.838913 
	C191.070450,122.699837 191.765503,120.517265 195.275772,120.299721 
	C199.055664,120.065468 199.564224,122.545509 199.548492,125.528412 
	C199.415009,150.852249 199.309479,176.176239 199.194519,202.000183 
z"/>
<path fill="#000000" opacity="1.000000" stroke="none" 
	d="
M397.665161,175.248795 
	C414.826569,189.798691 412.124725,214.347855 392.024872,224.227814 
	C370.283630,234.914566 349.325287,230.573456 329.211273,218.970139 
	C327.296936,217.865784 326.577667,216.136505 326.662628,213.923050 
	C326.783966,210.761673 326.665863,207.591003 326.791779,204.429947 
	C326.867188,202.537460 326.216522,199.998398 328.849609,199.417542 
	C331.205475,198.897842 331.694336,201.319290 332.526245,202.827179 
	C336.663727,210.326614 342.387634,216.203461 350.072357,220.039703 
	C359.823364,224.907410 369.974854,225.324524 380.128937,221.763062 
	C386.938049,219.374802 391.074036,214.287613 391.777618,206.925156 
	C392.488068,199.490646 389.125397,194.129990 382.855347,190.354828 
	C373.928894,184.980225 363.879761,182.302307 354.345062,178.389999 
	C348.483704,175.984940 342.679504,173.488663 337.581879,169.617004 
	C321.700043,157.554672 323.602722,133.969681 341.341736,124.661224 
	C355.715912,117.118469 370.726715,117.143967 385.984924,121.561661 
	C386.942596,121.838936 387.858002,122.259972 388.811890,122.552895 
	C400.753479,126.220139 403.619904,131.100754 401.081543,143.394302 
	C400.833618,144.595108 400.522369,145.727554 399.227570,146.093323 
	C397.462402,146.591949 396.906128,145.161072 396.330475,143.992294 
	C394.100250,139.464264 391.401855,135.255539 387.486542,132.019012 
	C377.072968,123.410797 365.326172,122.777443 353.180023,127.156868 
	C347.131775,129.337616 343.325897,134.158585 343.057892,140.802521 
	C342.796906,147.271790 346.256927,151.879745 351.871429,154.779343 
	C361.364227,159.681915 371.590302,162.814941 381.488373,166.735550 
	C387.097198,168.957214 392.433289,171.590820 397.665161,175.248795 
z"/>
<path fill="#000000" opacity="1.000000" stroke="none" 
	d="
M706.435486,119.189911 
	C713.825623,120.374550 720.386169,122.680115 726.789246,125.556244 
	C729.708801,126.867630 731.276794,128.782349 731.187134,132.064713 
	C731.096130,135.393570 731.208191,138.727493 731.177124,142.058701 
	C731.163086,143.557724 731.194824,145.298691 729.455627,145.850174 
	C727.547363,146.455231 726.934875,144.695389 726.165833,143.461609 
	C724.845276,141.342911 723.707520,139.099335 722.268616,137.067032 
	C711.948364,122.489845 693.802917,123.187904 683.114441,127.324852 
	C677.251465,129.594086 673.658569,134.253479 673.353027,140.669937 
	C673.045532,147.127045 676.215088,151.908051 682.021667,154.642914 
	C692.554626,159.603912 703.584961,163.372696 714.329590,167.818924 
	C722.469482,171.187286 730.482178,175.078812 735.153076,183.298553 
	C743.367554,197.754074 738.340820,215.950470 723.702759,223.786118 
	C709.420837,231.431107 694.371582,231.581345 679.083252,227.476364 
	C673.294556,225.922089 667.793152,223.613739 662.428650,220.842331 
	C658.092957,218.602448 656.153564,215.570709 656.933350,210.842819 
	C657.579468,206.925537 655.782166,202.525665 658.869568,199.083740 
	C661.680237,199.303894 662.241882,201.444473 663.217468,203.098282 
	C672.235535,218.385117 685.395935,225.522552 703.244263,223.656158 
	C715.608398,222.363220 723.005859,213.909760 721.899841,202.303696 
	C721.347656,196.509232 717.591248,193.095978 713.138794,190.283447 
	C704.327087,184.717239 694.215942,182.166946 684.673828,178.292786 
	C678.807251,175.910919 672.946838,173.437866 667.910950,169.527466 
	C650.891968,156.311996 655.557922,131.057495 675.129333,122.891533 
	C685.173279,118.700790 695.430786,118.127075 706.435486,119.189911 
z"/>
<path fill="#000000" opacity="1.000000" stroke="none" 
	d="
M282.022186,152.018082 
	C293.481903,175.733994 304.791565,199.103531 316.077362,222.484573 
	C318.289032,227.066544 317.688843,228.049072 312.760071,228.216995 
	C295.456604,228.806595 295.456573,228.806625 288.125549,213.349854 
	C285.914948,208.689026 283.620911,204.065292 281.525848,199.353088 
	C280.298462,196.592514 278.541504,195.331970 275.384186,195.363785 
	C263.055298,195.488098 250.722717,195.487900 238.394806,195.307434 
	C235.019333,195.258026 233.139572,196.489258 232.031693,199.588196 
	C229.118332,207.737427 225.986938,215.809448 223.134369,223.979279 
	C222.189453,226.685501 220.807449,228.150833 217.815201,228.235168 
	C212.853683,228.375000 211.754471,227.072464 213.812531,222.498825 
	C225.901993,195.632370 238.081589,168.806458 250.204330,141.954956 
	C252.944931,135.884583 255.515503,129.736908 258.299133,123.686829 
	C259.311859,121.485710 260.156555,118.900833 263.405609,118.942741 
	C266.578125,118.983665 267.567291,121.528519 268.614105,123.683220 
	C273.125061,132.968201 277.462921,142.337265 282.022186,152.018082 
M269.375244,173.090973 
	C265.145294,163.995438 260.915344,154.899902 256.147705,144.648193 
	C249.351898,160.202530 243.099838,174.512299 236.721756,189.110519 
	C250.045670,189.110519 262.678345,189.110519 275.677948,189.110519 
	C274.300201,183.276047 271.772095,178.609650 269.375244,173.090973 
z"/>
<path fill="#000000" opacity="1.000000" stroke="none" 
	d="
M774.054932,131.262421 
	C774.314697,127.345352 772.674500,126.113907 769.287842,126.149826 
	C761.785583,126.229378 754.375549,127.124283 746.944641,127.996033 
	C744.710144,128.258163 741.307068,130.236176 740.769165,125.650154 
	C740.271362,121.405998 742.683716,120.000656 746.460815,120.042389 
	C761.081604,120.203972 775.702271,120.472954 790.323303,120.495987 
	C800.804138,120.512497 811.285156,120.163528 821.766907,120.072281 
	C823.564514,120.056633 825.541260,120.129539 827.125000,120.846710 
	C829.506287,121.925064 829.327576,124.382690 828.928406,126.540756 
	C828.500610,128.853867 826.569153,128.511230 824.930664,128.365250 
	C817.483582,127.701759 810.051392,126.825317 802.593201,126.346764 
	C796.179565,125.935234 796.118591,126.155762 796.116455,132.482468 
	C796.106201,162.118530 796.121704,191.754593 796.092712,221.390625 
	C796.086548,227.720490 795.566223,228.179749 789.243774,228.202438 
	C786.080444,228.213806 782.908081,228.030060 779.755798,228.211502 
	C775.998840,228.427765 774.574890,227.171173 774.428040,223.116135 
	C773.668518,202.143326 774.207153,181.169739 774.039001,160.198471 
	C773.962891,150.709045 774.049683,141.218307 774.054932,131.262421 
z"/>
</svg>